:SAMPLES-PER-SECOND 24
:FULLY-SPECIFIED
:DEGREES
762
root  1.73628 35.417 9.28873 8.88487 16.7608 13.0178
RightUpLeg  -47.308 -26.9707 -17.1144
RightLeg  41.4909 13.3971 12.1246
RightFoot  8.65169 -0.828061 5.02202
RightToes  -1.46215e-006 3.27826e-006 1.63871e-007
Spine  11.7891 -1.51544 4.30779
Spine1  -1.72671 1.28396 -14.484
HEad  -17.3466 -17.4329 1.81135
LeftShoulder1  2.6022 -6.54954 -19.3915
LeftArm  88.9305 -56.6728 -89.5038
LeftForeArm  92.9182 -79.8297 -55.9321
LeftHand  -0.457006 3.43138 27.1263
RightShoulder  1.09519 3.3973 8.4419
RightArm  -120.226 87.5303 -42.3247
RightForeArm  1.66603 -6.44082 3.68069
RightHand  -0.209358 -4.78717 -40.4409
LeftUpLeg  6.66136 10.2457 5.20406
LeftLeg  20.6994 -1.86936 -0.512536
LeftFoot  -24.3639 -2.10497 -19.537
LeftToes  1.24762e-006 1.46925e-008 1.29056e-009
763
root  1.75807 35.6379 9.03204 10.1384 19.8501 12.2864
RightUpLeg  -45.5613 -24.9601 -18.3918
RightLeg  38.4127 9.53252 7.78553
RightFoot  9.39662 -1.3188 7.54322
RightToes  -1.46215e-006 3.27826e-006 1.63871e-007
Spine  11.5903 -2.21474 3.46888
Spine1  -0.240795 -0.0378005 -10.5354
HEad  -19.105 -16.6854 1.28399
LeftShoulder1  2.66021 -6.57837 -19.9369
LeftArm  86.463 -56.8842 -88.818
LeftForeArm  88.946 -79.2767 -51.5926
LeftHand  -0.00435402 5.36727 28.5792
RightShoulder  1.03855 3.15511 8.12548
RightArm  -105.859 86.2282 -30.4955
RightForeArm  3.15187 -6.60699 4.57484
RightHand  -1.12368 -1.70695 -35.0262
LeftUpLeg  3.32458 7.93847 5.86663
LeftLeg  22.1096 -2.72493 -0.87521
LeftFoot  -23.3348 -1.90474 -19.3012
LeftToes  1.24762e-006 1.46925e-008 1.29056e-009
764
root  1.75428 35.7331 8.79531 10.2343 20.899 11.0206
RightUpLeg  -43.6196 -16.6039 -20.9617
RightLeg  36.1134 2.82797 1.95959
RightFoot  7.7888 -1.44763 8.89294
RightToes  -1.46215e-006 3.27826e-006 1.63871e-007
Spine  12.1086 -2.62439 3.94575
Spine1  0.36539 -0.534764 -9.41687
HEad  -18.0895 -16.0782 0.439047
LeftShoulder1  2.5394 -6.3909 -19.1597
LeftArm  86.8664 -57.7142 -89.3883
LeftForeArm  84.1196 -78.3012 -45.3726
LeftHand  0.139148 5.92118 29.3036
RightShoulder  0.980166 3.16803 7.10618
RightArm  -112.383 85.8914 -34.4503
RightForeArm  3.3121 -6.35901 3.10013
RightHand  -1.23147 -0.878811 -31.148
LeftUpLeg  1.51871 6.85007 7.06937
LeftLeg  23.3313 -3.01804 -1.08335
LeftFoot  -23.3056 -1.97488 -19.9929
LeftToes  1.24762e-006 1.46925e-008 1.29056e-009
765
root  1.64565 35.6519 8.51988 10.4001 22.5809 10.0023
RightUpLeg  -43.154 -6.63697 -24.07
RightLeg  37.6475 3.80512 2.93391
RightFoot  1.27508 -1.14965 10.5662
RightToes  -1.46215e-006 3.27826e-006 1.63871e-007
Spine  13.933 -2.92997 4.50569
Spine1  -0.484274 -0.835118 -8.98924
HEad  -17.9042 -15.5583 -0.251247
LeftShoulder1  2.38641 -6.54537 -17.0893
LeftArm  89.0564 -58.6353 -92.9812
LeftForeArm  82.9021 -78.0617 -44.1993
LeftHand  0.0762449 5.66987 29.7373
RightShoulder  0.951879 3.09797 6.79945
RightArm  -98.861 85.0102 -23.8943
RightForeArm  4.95924 -6.51743 3.95749
RightHand  -0.888598 -2.10086 -30.8102
LeftUpLeg  -0.914271 5.80227 8.34186
LeftLeg  25.4941 -3.19576 -1.31539
LeftFoot  -24.4005 -2.14566 -19.8455
LeftToes  1.24762e-006 1.46925e-008 1.29056e-009
766
root  1.38212 35.3901 8.37383 11.1722 26.2113 9.06674
RightUpLeg  -44.0782 1.55839 -26.437
RightLeg  43.0759 14.0483 13.5169
RightFoot  -8.48459 -0.3573 11.4817
RightToes  -1.46215e-006 3.27826e-006 1.63871e-007
Spine  15.0571 -3.83768 4.31143
Spine1  -0.703587 -2.08368 -6.97318
HEad  -19.4075 -12.3388 -2.76987
LeftShoulder1  2.29806 -6.67772 -15.8061
LeftArm  88.8462 -59.6735 -96.0405
LeftForeArm  84.2845 -78.6788 -48.2368
LeftHand  -0.456283 3.55515 28.8072
RightShoulder  0.874529 2.92341 5.87953
RightArm  -88.0722 84.0898 -18.2557
RightForeArm  12.6114 -6.78092 5.32275
RightHand  -0.812042 -2.16672 -28.8315
LeftUpLeg  -5.00007 3.99771 10.4622
LeftLeg  29.1089 -5.37907 -2.89718
LeftFoot  -25.6994 -2.37749 -19.9117
LeftToes  1.24762e-006 1.46925e-008 1.29056e-009
767
root  0.892294 35.0278 8.51844 12.8559 30.1145 8.87413
RightUpLeg  -46.396 7.56094 -28.0164
RightLeg  49.4917 19.2961 22.3293
RightFoot  -14.3286 0.119102 8.46719
RightToes  -1.46215e-006 3.27826e-006 1.63871e-007
Spine  14.5539 -4.58609 3.74247
Spine1  0.70998 -2.98413 -6.11341
HEad  -21.4222 -5.96234 -6.46703
LeftShoulder1  2.13426 -6.44645 -14.5769
LeftArm  91.367 -60.706 -100.915
LeftForeArm  82.5297 -78.6397 -48.643
LeftHand  -0.902958 1.60001 27.4062
RightShoulder  0.695622 2.74078 3.07347
RightArm  -82.7538 83.3456 -18.1247
RightForeArm  21.7459 -6.9211 6.28764
RightHand  -0.861714 -1.38876 -24.7619
LeftUpLeg  -9.52611 3.47796 12.8196
LeftLeg  31.9765 -8.16792 -5.10679
LeftFoot  -26.2609 -2.58044 -20.7043
LeftToes  1.24762e-006 1.46925e-008 1.29056e-009
768
root  0.127655 34.6914 8.98093 15.2106 34.2894 9.40759
RightUpLeg  -48.55 9.26966 -28.1652
RightLeg  53.326 16.5614 22.0984
RightFoot  -16.6556 0.133082 5.2982
RightToes  -1.46215e-006 3.27826e-006 1.63871e-007
Spine  13.4534 -4.52849 4.30262
Spine1  2.91345 -2.36221 -8.09555
HEad  -23.7573 1.77343 -11.0773
LeftShoulder1  1.92689 -6.30145 -12.5999
LeftArm  98.7881 -60.5555 -108.836
LeftForeArm  76.5281 -77.408 -42.4101
LeftHand  -0.905669 1.65111 27.8417
RightShoulder  0.55017 2.72997 0.437235
RightArm  -54.0766 79.6602 0.574897
RightForeArm  31.5313 -7.28536 9.15004
RightHand  -0.790248 -1.07303 -21.1099
LeftUpLeg  -13.1222 3.2524 15.1048
LeftLeg  32.1495 -10.3904 -6.61024
LeftFoot  -26.0782 -2.64813 -21.4578
LeftToes  1.24762e-006 1.46925e-008 1.29056e-009
769
root  -0.936222 34.6201 9.93471 17.2762 39.6477 9.34261
RightUpLeg  -49.2725 7.342 -25.0216
RightLeg  54.8867 12.7864 18.4147
RightFoot  -17.2766 0.060098 3.39684
RightToes  -1.46215e-006 3.27826e-006 1.63871e-007
Spine  12.7613 -3.95361 6.94121
Spine1  4.6744 -0.564861 -11.7852
HEad  -26.4664 10.2405 -18.0699
LeftShoulder1  1.78997 -6.18625 -11.2934
LeftArm  104.406 -58.6129 -114.375
LeftForeArm  72.1389 -76.1989 -37.7316
LeftHand  -0.825395 2.09492 28.7579
RightShoulder  0.540978 3.27412 -0.527124
RightArm  -25.7822 71.3289 17.2854
RightForeArm  41.3432 -7.56314 12.5428
RightHand  -0.859267 -0.0903313 -18.8144
LeftUpLeg  -14.9665 0.665386 18.8586
LeftLeg  27.673 -13.2854 -7.21486
LeftFoot  -23.4423 -2.42533 -23.9979
LeftToes  1.24762e-006 1.46925e-008 1.29056e-009
770
root  -2.26451 34.9119 11.4801 19.2063 45.5546 9.06596
RightUpLeg  -49.0574 4.02677 -19.3983
RightLeg  55.0546 10.5945 15.4787
RightFoot  -16.2274 -0.0603643 1.09644
RightToes  -1.46215e-006 3.27826e-006 1.63871e-007
Spine  13.0706 -2.81039 9.77595
Spine1  5.41409 2.06466 -16.1169
HEad  -29.6555 19.5473 -26.8722
LeftShoulder1  1.65468 -5.53485 -11.1122
LeftArm  106.332 -55.944 -115.694
LeftForeArm  71.6809 -76.2079 -37.9256
LeftHand  -0.888914 1.69313 27.6512
RightShoulder  0.672655 4.57812 -0.131215
RightArm  6.45404 59.7136 28.469
RightForeArm  38.3278 -4.41762 16.6271
RightHand  -1.0692 1.74548 -17.4742
LeftUpLeg  -14.8583 1.91726 21.9927
LeftLeg  16.8994 -15.1564 -2.78484
LeftFoot  -14.644 -0.690657 -28.602
LeftToes  1.24762e-006 1.46925e-008 1.29056e-009
771
root  -3.61876 35.261 13.3067 21.6865 51.4725 10.1669
RightUpLeg  -48.4873 -0.0144503 -13.8148
RightLeg  54.9083 8.34551 12.1703
RightFoot  -15.4927 -0.166839 -1.72931
RightToes  -1.46215e-006 3.27826e-006 1.63871e-007
Spine  14.7872 -1.24886 10.8187
Spine1  5.42451 4.82651 -19.6013
HEad  -33.7671 29.4242 -36.327
LeftShoulder1  1.46915 -4.44716 -11.2989
LeftArm  108.023 -54.3595 -115.884
LeftForeArm  73.81 -76.8562 -40.3261
LeftHand  -0.915065 1.42758 26.5782
RightShoulder  0.986793 6.32734 1.8182
RightArm  47.3382 45.4138 36.0852
RightForeArm  20.1313 4.43041 18.1774
RightHand  -1.2044 2.90004 -16.9845
LeftUpLeg  -13.7913 8.31433 22.3358
LeftLeg  6.45179 -7.36721 1.92742
LeftFoot  -1.12144 2.28962 -25.6662
LeftToes  1.24762e-006 1.46925e-008 1.29056e-009
772
root  -4.77681 35.5335 15.1195 24.5071 58.5135 12.5625
RightUpLeg  -47.1948 -5.28587 -8.6903
RightLeg  54.5988 6.46807 9.30276
RightFoot  -16.144 -0.277741 -4.01992
RightToes  -1.46215e-006 3.27826e-006 1.63871e-007
Spine  16.3214 -0.0663609 10.732
Spine1  6.2679 6.62897 -20.7314
HEad  -38.904 39.0976 -46.5375
LeftShoulder1  1.31539 -3.66632 -11.1475
LeftArm  110.447 -54.3112 -117.464
LeftForeArm  73.6156 -76.873 -40.4664
LeftHand  -0.875312 1.66541 27.0332
RightShoulder  1.44684 7.69826 5.09197
RightArm  77.0128 32.4339 39.7906
RightForeArm  3.55958 11.2832 16.3521
RightHand  -1.30489 3.86166 -16.532
LeftUpLeg  -14.6763 10.4991 21.7916
LeftLeg  7.74361 5.83527 2.34334
LeftFoot  4.90873 2.32415 -16.395
LeftToes  1.24762e-006 1.46925e-008 1.29056e-009
